<mxfile host="app.diagrams.net" modified="2023-05-30T21:11:20.766Z" agent="Mozilla/5.0 (Macintosh; Intel Mac OS X 10_15_7) AppleWebKit/605.1.15 (KHTML, like Gecko) Version/16.4 Safari/605.1.15" version="21.3.5" etag="6m_dJ-llhJ0A8berR5AF" type="github">
  <diagram name="Page-1" id="m-iRF6Wc9rc5OqKvI6GN">
    <mxGraphModel>
      <root>
        <mxCell id="0" />
        <mxCell id="1" parent="0" />
      </root>
    </mxGraphModel>
  </diagram>
</mxfile>
